<svg xmlns="http://www.w3.org/2000/svg" viewBox="0 0 100 100">
  <!-- Rust red background -->
  <rect width="100" height="100" fill="#8B1818"/>
  
  <!-- SVG implementation of sinc(x) function moved to final position -->
  <path 
      d="M10,58.174109498544745 L10.5,58.41295620055017 L11,58.75786693390851 L11.5,59.1899691901374 L12,59.68446903228852 L12.5,60.21203530005088 L13,60.74049863452889 L13.5,61.23676910457393 L14,61.6688605483815 L14.5,62.007900484337696 L15,62.23000229821293 L15.5,62.31788167271703 L16,62.26211174559896 L16.5,62.06193068133231 L17,61.725540223925144 L17.5,61.26986300755227 L18,60.719758291662664 L18.5,60.1067285148415 L19,59.46718069177343 L19.5,58.840335295536946 L20,58.26589909291435 L20.5,57.781635895716086 L21,57.420979157173285 L21.5,57.21083199682032 L22,57.16969326944323 L22.5,57.30623289364763 L23,57.618416513921126 L23.5,58.09324984839777 L24,58.70717834822572 L24.5,59.427139969784676 L25,60.21223007152384 L25.5,61.01589993463225 L26,61.788576393334786 L26.5,62.480561619837175 L27,63.04505104239453 L27.5,63.44109510226226 L28,63.63632802382074 L28.5,63.60929439226299 L29,63.35122194274922 L29.5,62.86711582596993 L30,62.17608444355748 L30.5,61.31084797383497 L31,60.31642577036551 L31.5,59.24804546862515 L32,58.16836228781442 L32.5,57.144119068552264 L33,56.24241358765416 L33.5,55.52676746550623 L34,55.05320876688309 L34.5,54.86658694652296 L35,54.99733345720139 L35.5,55.45886411579859 L36,56.24579086446406 L36.5,57.33307215537412 L37,58.67618468869036 L37.5,60.21234698590436 L38,61.86276998799284 L38.5,63.535854452168756 L39,65.13120236778467 L39.5,66.54426280705975 L40,67.6713941973051 L40.5,68.41509717031897 L41,68.68915660146753 L41.5,68.42342925391608 L42,67.56802495307929 L42.5,66.096654066585 L43,64.00895117359565 L43.5,61.33163242498595 L44,58.1183998925351 L44.5,54.44856738832972 L45,50.4244456943367 L45.5,46.1675876108814 L46,41.814051463486365 L46.5,37.50889264288144 L47,33.40013369055855 L47.5,29.63249218062124 L48,26.341160607684138 L48.5,23.64593279875551 L49,21.64595691166376 L49.5,20.415366519276333 L50,20 L50.5,20.415366519276333 L51,21.64595691166376 L51.5,23.64593279875551 L52,26.341160607684138 L52.5,29.63249218062124 L53,33.40013369055855 L53.5,37.50889264288144 L54,41.814051463486365 L54.5,46.1675876108814 L55,50.4244456943367 L55.5,54.44856738832972 L56,58.1183998925351 L56.5,61.33163242498595 L57,64.00895117359565 L57.5,66.096654066585 L58,67.56802495307929 L58.5,68.42342925391608 L59,68.68915660146753 L59.5,68.41509717031897 L60,67.6713941973051 L60.5,66.54426280705975 L61,65.13120236778467 L61.5,63.535854452168756 L62,61.86276998799284 L62.5,60.21234698590436 L63,58.67618468869036 L63.5,57.33307215537412 L64,56.24579086446406 L64.5,55.45886411579859 L65,54.99733345720139 L65.5,54.86658694652296 L66,55.05320876688309 L66.5,55.52676746550623 L67,56.24241358765416 L67.5,57.144119068552264 L68,58.16836228781442 L68.5,59.24804546862515 L69,60.31642577036551 L69.5,61.31084797383497 L70,62.17608444355748 L70.5,62.86711582596993 L71,63.35122194274922 L71.5,63.60929439226299 L72,63.63632802382074 L72.5,63.44109510226226 L73,63.04505104239453 L73.5,62.480561619837175 L74,61.788576393334786 L74.5,61.01589993463225 L75,60.21223007152384 L75.5,59.427139969784676 L76,58.70717834822572 L76.5,58.09324984839777 L77,57.618416513921126 L77.5,57.30623289364763 L78,57.16969326944323 L78.5,57.21083199682032 L79,57.420979157173285 L79.5,57.781635895716086 L80,58.26589909291435 L80.5,58.840335295536946 L81,59.46718069177343 L81.5,60.1067285148415 L82,60.719758291662664 L82.5,61.26986300755227 L83,61.725540223925144 L83.5,62.06193068133231 L84,62.26211174559896 L84.5,62.31788167271703 L85,62.23000229821293 L85.5,62.007900484337696 L86,61.6688605483815 L86.5,61.23676910457393 L87,60.74049863452889 L87.5,60.21203530005088 L88,59.68446903228852 L88.5,59.1899691901374 L89,58.75786693390851 L89.5,58.41295620055017 L90,58.174109498544745" 
      stroke="white" 
      fill="none" 
      stroke-width="3"
      stroke-linecap="round"/>
</svg>
